# File created by Blade
# Date/Time:  Thu Sep 25 19:26:26 2014
# Frame Rate: 120.000 fps
#------------------------------------------------------
:FULLY-SPECIFIED
:DEGREES
228
root -0.674275 31.454522 -12.763339 72.293722 -32.760471 10.207226
Spine 14.135607 -3.148666 21.328622
Head -42.091628 -9.639621 14.549789
LeftShoulder 17.547735 -25.393571 25.703621
LeftArm 69.109668 8.355074 -38.431491
LeftForeArm 17.161756 -0.000000 25.620051
LeftHand -29.734039 0.000000 27.737311
LeftHandThumb1 -26.253704 0.000000 33.147579
RightShoulder 0.214719 38.942077 -30.836553
RightArm 33.964996 -15.580872 49.225026
RightForeArm -27.724867 -0.000000 23.181683
RightHand -3.382339 -0.000000 -8.414143
RightHandThumb1 -24.326973 -0.000000 -32.862282
LeftUpLeg -73.076243 14.008645 -22.435612
LeftLeg -1.797080 -0.000000 0.000000
LeftFoot -10.391362 19.251372 -35.557039
LeftToeBase 10.477308 -0.000000 -0.000000
RightUpLeg -90.964723 -19.005030 -6.649910
RightLeg -6.238713 -0.000000 0.000000
RightFoot 14.931104 5.471213 5.705630
RightToeBase -0.429355 -0.000000 0.000000
229
root -0.708922 31.455024 -12.760079 73.129613 -32.922517 9.961589
Spine 14.772229 -3.045575 21.486212
Head -42.589186 -9.434460 14.365427
LeftShoulder 17.455753 -26.050738 25.900590
LeftArm 69.260374 7.614703 -37.918030
LeftForeArm 17.555107 -0.000000 25.544131
LeftHand -29.704474 0.000000 28.619447
LeftHandThumb1 -26.253704 0.000000 33.147579
RightShoulder 0.016084 39.654475 -31.516569
RightArm 34.155162 -15.263504 48.882546
RightForeArm -28.110236 -0.000000 23.254814
RightHand -3.326040 -0.000000 -9.250101
RightHandThumb1 -24.326973 -0.000000 -32.862282
LeftUpLeg -73.762970 14.021494 -22.661924
LeftLeg -1.899776 -0.000000 0.000000
LeftFoot -10.183922 19.365162 -35.519360
LeftToeBase 10.205418 -0.000000 -0.000000
RightUpLeg -91.711250 -18.780460 -6.443054
RightLeg -6.274881 -0.000000 0.000000
RightFoot 15.001706 5.499768 5.681174
RightToeBase -0.497695 -0.000000 0.000000
230
root -0.739776 31.457609 -12.753604 73.952673 -33.005914 9.779980
Spine 15.359128 -3.089614 21.671236
Head -43.069980 -9.101489 14.288387
LeftShoulder 17.228408 -26.736109 26.255498
LeftArm 69.302603 6.881364 -37.759505
LeftForeArm 18.114748 -0.000000 25.535690
LeftHand -29.785618 0.000000 29.127354
LeftHandThumb1 -26.253704 0.000000 33.147579
RightShoulder -0.066093 40.407162 -32.097575
RightArm 34.310012 -15.004745 48.429605
RightForeArm -28.297198 -0.000000 23.382016
RightHand -3.449200 -0.000000 -9.735372
RightHandThumb1 -24.326973 -0.000000 -32.862282
LeftUpLeg -74.435943 13.939068 -22.794902
LeftLeg -2.017369 -0.000000 0.000000
LeftFoot -10.226442 19.533644 -35.913681
LeftToeBase 10.448844 -0.000000 -0.000000
RightUpLeg -92.431733 -18.642554 -6.230582
RightLeg -6.336835 -0.000000 0.000000
RightFoot 15.035664 5.488439 5.655929
RightToeBase -0.459233 -0.000000 0.000000
231
root -0.775507 31.459110 -12.749321 74.830521 -33.097132 9.527321
Spine 15.951259 -3.017136 21.865572
Head -43.594213 -8.960593 14.189044
LeftShoulder 17.056268 -27.434430 26.569551
LeftArm 69.254751 6.124311 -37.808743
LeftForeArm 18.652640 -0.000000 25.619731
LeftHand -29.955525 -0.000000 29.390084
LeftHandThumb1 -26.253704 0.000000 33.147579
RightShoulder -0.264863 40.867686 -32.673379
RightArm 34.802083 -14.810883 47.671557
RightForeArm -28.326631 -0.000000 23.489287
RightHand -3.600000 0.000000 -10.063460
RightHandThumb1 -24.326973 -0.000000 -32.862282
LeftUpLeg -75.157298 13.917404 -22.999279
LeftLeg -2.139132 -0.000000 0.000000
LeftFoot -10.122710 19.651034 -35.988973
LeftToeBase 10.350796 -0.000000 -0.000000
RightUpLeg -93.220970 -18.425577 -5.962005
RightLeg -6.333199 -0.000000 0.000000
RightFoot 15.133098 5.448025 5.723762
RightToeBase -0.810297 -0.000000 0.000000
